<?xml version="1.0" standalone="no"?>
<!DOCTYPE svg PUBLIC "-//W3C//DTD SVG 20010904//EN"
 "http://www.w3.org/TR/2001/REC-SVG-20010904/DTD/svg10.dtd">
<svg version="1.0" xmlns="http://www.w3.org/2000/svg"
 width="72.000000pt" height="72.000000pt" viewBox="0 0 72.000000 72.000000"
 preserveAspectRatio="xMidYMid meet">

<g transform="translate(0.000000,72.000000) scale(0.100000,-0.100000)"
fill="#000000" stroke="none">
<path d="M324 673 c-9 -50 -22 -65 -48 -57 -44 15 -86 22 -81 14 3 -4 27 -13
55 -20 42 -10 52 -10 65 3 8 9 15 23 15 31 0 9 5 16 10 16 6 0 10 -12 10 -27
0 -42 13 -55 51 -51 30 3 35 7 43 41 7 26 15 37 28 37 10 0 18 -4 18 -10 0 -5
-4 -10 -9 -10 -5 0 -9 -16 -8 -36 1 -33 5 -38 52 -58 63 -29 80 -49 80 -98 0
-33 -7 -46 -34 -70 l-34 -31 26 -19 c22 -16 27 -28 27 -60 0 -87 -66 -135
-170 -123 -50 6 -57 4 -76 -17 -11 -13 -23 -32 -27 -41 -3 -9 -10 -17 -15 -17
-11 0 -3 58 10 66 17 10 -14 34 -44 34 -23 0 -32 -6 -42 -30 -7 -17 -15 -27
-19 -23 -4 3 -7 -1 -7 -10 0 -24 -18 -21 -22 3 -3 18 -4 17 -15 -5 -10 -22 -9
-27 10 -40 44 -27 58 -23 75 24 25 65 49 42 27 -25 -5 -16 0 -23 20 -32 47
-22 60 -16 73 33 l12 45 67 0 c50 0 77 5 101 20 67 41 91 125 52 180 l-20 29
25 27 c19 21 25 38 25 74 0 51 -24 82 -88 115 -27 13 -33 21 -28 38 20 71 20
72 -20 85 -21 6 -39 10 -39 9 -1 -1 -8 -20 -16 -41 -8 -22 -20 -41 -28 -44
-11 -4 -12 5 -7 42 7 43 6 47 -19 56 -44 17 -54 12 -61 -27z m41 7 c3 -5 -1
-10 -9 -10 -9 0 -16 5 -16 10 0 6 4 10 9 10 6 0 13 -4 16 -10z"/>
<path d="M560 636 c0 -2 8 -10 18 -17 15 -13 16 -12 3 4 -13 16 -21 21 -21 13z"/>
<path d="M170 613 c-7 -49 -5 -57 19 -63 35 -8 48 -33 32 -63 -7 -14 -11 -31
-8 -39 3 -7 6 -4 6 9 1 12 5 24 10 27 5 3 11 20 13 37 5 34 -23 72 -47 62 -9
-3 -15 5 -18 24 -3 24 -4 25 -7 6z"/>
<path d="M345 528 c-10 -30 -25 -94 -25 -105 0 -7 6 -13 14 -13 10 0 17 16 22
45 3 25 10 47 14 50 4 3 31 -5 59 -16 40 -17 51 -27 51 -44 0 -28 -38 -44 -90
-39 -28 3 -31 2 -15 -5 56 -26 105 -5 118 50 8 34 -15 56 -79 75 -58 17 -64
17 -69 2z"/>
<path d="M197 401 c-4 -17 -3 -21 5 -13 5 5 8 16 6 23 -3 8 -7 3 -11 -10z"/>
<path d="M182 350 c0 -14 2 -19 5 -12 2 6 2 18 0 25 -3 6 -5 1 -5 -13z"/>
<path d="M282 299 c-11 -35 -16 -68 -12 -73 5 -5 33 -10 62 -12 l53 -3 -42 11
c-47 12 -50 21 -31 76 11 30 15 33 43 28 44 -9 115 -46 115 -60 0 -14 -27 -40
-50 -49 -10 -4 -7 -6 7 -6 30 -1 57 41 49 75 -8 29 -64 59 -133 70 l-42 6 -19
-63z"/>
<path d="M171 308 c0 -9 -8 -24 -17 -32 -8 -9 -11 -16 -6 -16 16 0 34 28 29
47 -4 16 -5 16 -6 1z"/>
<path d="M70 238 c-26 -43 -25 -46 8 -54 15 -3 46 -11 70 -18 40 -13 60 -7 47
14 -3 5 -32 14 -65 21 -33 6 -60 14 -60 18 1 14 27 39 45 44 18 4 18 5 -3 6
-15 1 -29 -9 -42 -31z"/>
<path d="M577 105 c-15 -14 -24 -25 -19 -25 5 0 19 11 32 25 30 32 23 32 -13
0z"/>
<path d="M510 60 c-8 -5 -10 -10 -5 -10 6 0 17 5 25 10 8 5 11 10 5 10 -5 0
-17 -5 -25 -10z"/>
<path d="M418 23 c6 -2 18 -2 25 0 6 3 1 5 -13 5 -14 0 -19 -2 -12 -5z"/>
</g>
</svg>
